<mxfile host="Electron" modified="2023-08-18T15:42:20.502Z" agent="Mozilla/5.0 (Macintosh; Intel Mac OS X 10_15_7) AppleWebKit/537.36 (KHTML, like Gecko) draw.io/21.6.8 Chrome/114.0.5735.289 Electron/25.5.0 Safari/537.36" etag="-7EX9j_TEddQ-BJC1vXZ" version="21.6.8" type="device">
  <diagram name="Page-1" id="QGZNqJDq6_y6giAaDoWt">
    <mxGraphModel dx="1174" dy="1992" grid="1" gridSize="10" guides="1" tooltips="1" connect="1" arrows="1" fold="1" page="1" pageScale="1" pageWidth="827" pageHeight="1169" math="0" shadow="0">
      <root>
        <mxCell id="0" />
        <mxCell id="1" parent="0" />
        <mxCell id="89sK6pgD19V1uhRhcigI-2" value="" style="rounded=0;whiteSpace=wrap;html=1;fillColor=#ffe6cc;dashed=1;dashPattern=12 12;strokeColor=#d79b00;" vertex="1" parent="1">
          <mxGeometry x="80" y="80" width="600" height="280" as="geometry" />
        </mxCell>
        <mxCell id="89sK6pgD19V1uhRhcigI-3" value="" style="rounded=0;whiteSpace=wrap;html=1;fillColor=#d5e8d4;dashed=1;dashPattern=12 12;strokeColor=#82b366;" vertex="1" parent="1">
          <mxGeometry x="80" y="400" width="600" height="280" as="geometry" />
        </mxCell>
        <mxCell id="89sK6pgD19V1uhRhcigI-19" style="edgeStyle=orthogonalEdgeStyle;rounded=0;orthogonalLoop=1;jettySize=auto;html=1;entryX=0.5;entryY=0;entryDx=0;entryDy=0;entryPerimeter=0;" edge="1" parent="1" source="89sK6pgD19V1uhRhcigI-4" target="89sK6pgD19V1uhRhcigI-17">
          <mxGeometry relative="1" as="geometry" />
        </mxCell>
        <mxCell id="89sK6pgD19V1uhRhcigI-4" value="Dev VNet" style="rounded=0;whiteSpace=wrap;html=1;fillColor=#ffcd28;dashed=1;strokeColor=#d79b00;labelPosition=center;verticalLabelPosition=top;align=center;verticalAlign=bottom;gradientColor=#ffa500;" vertex="1" parent="1">
          <mxGeometry x="120" y="120" width="200" height="200" as="geometry" />
        </mxCell>
        <mxCell id="89sK6pgD19V1uhRhcigI-20" style="edgeStyle=orthogonalEdgeStyle;rounded=0;orthogonalLoop=1;jettySize=auto;html=1;entryX=0.5;entryY=1;entryDx=0;entryDy=0;entryPerimeter=0;" edge="1" parent="1" source="89sK6pgD19V1uhRhcigI-5" target="89sK6pgD19V1uhRhcigI-17">
          <mxGeometry relative="1" as="geometry" />
        </mxCell>
        <mxCell id="89sK6pgD19V1uhRhcigI-5" value="Prod VNet" style="rounded=0;whiteSpace=wrap;html=1;fillColor=#d5e8d4;dashed=1;strokeColor=#82b366;labelPosition=center;verticalLabelPosition=top;align=center;verticalAlign=bottom;gradientColor=#97d077;" vertex="1" parent="1">
          <mxGeometry x="120" y="440" width="200" height="200" as="geometry" />
        </mxCell>
        <mxCell id="89sK6pgD19V1uhRhcigI-6" value="Backend VNet" style="rounded=0;whiteSpace=wrap;html=1;fillColor=none;dashed=1;strokeColor=#6c8ebf;labelPosition=center;verticalLabelPosition=top;align=center;verticalAlign=bottom;" vertex="1" parent="1">
          <mxGeometry x="400" y="120" width="240" height="520" as="geometry" />
        </mxCell>
        <mxCell id="89sK6pgD19V1uhRhcigI-7" value="AKS" style="rounded=0;whiteSpace=wrap;html=1;fillColor=#dae8fc;labelPosition=center;verticalLabelPosition=top;align=center;verticalAlign=bottom;strokeColor=#6c8ebf;" vertex="1" parent="1">
          <mxGeometry x="440" y="160" width="160" height="440" as="geometry" />
        </mxCell>
        <mxCell id="89sK6pgD19V1uhRhcigI-9" value="APIM Dev" style="image;aspect=fixed;html=1;points=[];align=center;fontSize=12;image=img/lib/azure2/app_services/API_Management_Services.svg;labelBackgroundColor=none;" vertex="1" parent="1">
          <mxGeometry x="160" y="160" width="65" height="60" as="geometry" />
        </mxCell>
        <mxCell id="89sK6pgD19V1uhRhcigI-10" value="APIM Prod" style="image;aspect=fixed;html=1;points=[];align=center;fontSize=12;image=img/lib/azure2/app_services/API_Management_Services.svg;labelBackgroundColor=none;" vertex="1" parent="1">
          <mxGeometry x="160" y="480" width="65" height="60" as="geometry" />
        </mxCell>
        <mxCell id="89sK6pgD19V1uhRhcigI-13" value="&lt;font style=&quot;font-size: 16px;&quot;&gt;&lt;b&gt;Dev Environment&lt;/b&gt;&lt;/font&gt;" style="text;html=1;strokeColor=none;fillColor=none;align=center;verticalAlign=middle;whiteSpace=wrap;rounded=0;" vertex="1" parent="1">
          <mxGeometry x="80" y="80" width="240" height="30" as="geometry" />
        </mxCell>
        <mxCell id="89sK6pgD19V1uhRhcigI-14" value="&lt;font style=&quot;font-size: 16px;&quot;&gt;&lt;b&gt;Prod Environment&lt;/b&gt;&lt;/font&gt;" style="text;html=1;strokeColor=none;fillColor=none;align=center;verticalAlign=middle;whiteSpace=wrap;rounded=0;" vertex="1" parent="1">
          <mxGeometry x="80" y="400" width="240" height="30" as="geometry" />
        </mxCell>
        <mxCell id="89sK6pgD19V1uhRhcigI-15" value="Dev Backend" style="rounded=0;whiteSpace=wrap;html=1;fillColor=#ffcd28;strokeColor=#d79b00;gradientColor=#ffa500;" vertex="1" parent="1">
          <mxGeometry x="460" y="190" width="120" height="150" as="geometry" />
        </mxCell>
        <mxCell id="89sK6pgD19V1uhRhcigI-16" value="Prod Backend" style="rounded=0;whiteSpace=wrap;html=1;fillColor=#d5e8d4;strokeColor=#82b366;gradientColor=#97d077;" vertex="1" parent="1">
          <mxGeometry x="455" y="430" width="130" height="150" as="geometry" />
        </mxCell>
        <mxCell id="89sK6pgD19V1uhRhcigI-18" style="edgeStyle=orthogonalEdgeStyle;rounded=0;orthogonalLoop=1;jettySize=auto;html=1;entryX=0;entryY=0.5;entryDx=0;entryDy=0;" edge="1" parent="1" source="89sK6pgD19V1uhRhcigI-17" target="89sK6pgD19V1uhRhcigI-7">
          <mxGeometry relative="1" as="geometry" />
        </mxCell>
        <mxCell id="89sK6pgD19V1uhRhcigI-17" value="" style="fillColor=#28A8E0;verticalLabelPosition=bottom;sketch=0;html=1;strokeColor=#ffffff;verticalAlign=top;align=center;points=[[0.145,0.145,0],[0.5,0,0],[0.855,0.145,0],[1,0.5,0],[0.855,0.855,0],[0.5,1,0],[0.145,0.855,0],[0,0.5,0]];pointerEvents=1;shape=mxgraph.cisco_safe.compositeIcon;bgIcon=ellipse;resIcon=mxgraph.cisco_safe.capability.load_balancer;" vertex="1" parent="1">
          <mxGeometry x="358.5" y="358.5" width="41.5" height="43" as="geometry" />
        </mxCell>
        <mxCell id="89sK6pgD19V1uhRhcigI-26" style="edgeStyle=orthogonalEdgeStyle;rounded=0;orthogonalLoop=1;jettySize=auto;html=1;entryX=1.015;entryY=0.633;entryDx=0;entryDy=0;entryPerimeter=0;" edge="1" parent="1" source="89sK6pgD19V1uhRhcigI-21" target="89sK6pgD19V1uhRhcigI-9">
          <mxGeometry relative="1" as="geometry" />
        </mxCell>
        <mxCell id="89sK6pgD19V1uhRhcigI-27" style="edgeStyle=orthogonalEdgeStyle;rounded=0;orthogonalLoop=1;jettySize=auto;html=1;entryX=1;entryY=0.633;entryDx=0;entryDy=0;entryPerimeter=0;" edge="1" parent="1" source="89sK6pgD19V1uhRhcigI-21" target="89sK6pgD19V1uhRhcigI-10">
          <mxGeometry relative="1" as="geometry" />
        </mxCell>
        <mxCell id="89sK6pgD19V1uhRhcigI-28" style="edgeStyle=orthogonalEdgeStyle;rounded=0;orthogonalLoop=1;jettySize=auto;html=1;entryX=0;entryY=0.5;entryDx=0;entryDy=0;" edge="1" parent="1" source="89sK6pgD19V1uhRhcigI-21" target="89sK6pgD19V1uhRhcigI-15">
          <mxGeometry relative="1" as="geometry" />
        </mxCell>
        <mxCell id="89sK6pgD19V1uhRhcigI-29" style="edgeStyle=orthogonalEdgeStyle;rounded=0;orthogonalLoop=1;jettySize=auto;html=1;entryX=0;entryY=0.5;entryDx=0;entryDy=0;" edge="1" parent="1" source="89sK6pgD19V1uhRhcigI-21" target="89sK6pgD19V1uhRhcigI-16">
          <mxGeometry relative="1" as="geometry" />
        </mxCell>
        <mxCell id="89sK6pgD19V1uhRhcigI-21" value="" style="dashed=0;outlineConnect=0;html=1;align=center;labelPosition=center;verticalLabelPosition=bottom;verticalAlign=top;shape=mxgraph.weblogos.github" vertex="1" parent="1">
          <mxGeometry x="320" y="-10" width="75" height="75" as="geometry" />
        </mxCell>
      </root>
    </mxGraphModel>
  </diagram>
</mxfile>
